<svg xmlns="http://www.w3.org/2000/svg" viewBox="0 0 200 60" width="200" height="60">
  <rect width="200" height="60" rx="8" fill="#ffffff" opacity="0.95"/>
  <g transform="translate(12, 10)">
    <!-- US Flag Shield -->
    <path d="M0,0 L24,0 C24,16 18,32 12,38 C6,32 0,16 0,0 Z" fill="#1e3388"/>
    <path d="M0,14 L24,14 C24,22 18,32 12,38 C6,32 0,22 0,14 Z" fill="#b91c1c"/>
    <line x1="6" y1="14" x2="6" y2="35" stroke="#ffffff" stroke-width="2"/>
    <line x1="12" y1="14" x2="12" y2="38" stroke="#ffffff" stroke-width="2"/>
    <line x1="18" y1="14" x2="18" y2="35" stroke="#ffffff" stroke-width="2"/>
    <!-- Stars on Blue Header -->
    <circle cx="6" cy="6" r="1.5" fill="#ffffff"/>
    <circle cx="12" cy="6" r="1.5" fill="#ffffff"/>
    <circle cx="18" cy="6" r="1.5" fill="#ffffff"/>
    <circle cx="9" cy="10" r="1.5" fill="#ffffff"/>
    <circle cx="15" cy="10" r="1.5" fill="#ffffff"/>
  </g>
  <text x="46" y="26" font-family="'Plus Jakarta Sans', Arial, sans-serif" font-weight="900" font-size="14" fill="#0f172a">PEPFAR</text>
  <text x="46" y="42" font-family="'Plus Jakarta Sans', Arial, sans-serif" font-weight="700" font-size="11" fill="#2563eb">U.S. CDC PARTNER</text>
</svg>
